<?xml version="1.0" standalone="no"?>
<!DOCTYPE svg PUBLIC "-//W3C//DTD SVG 20010904//EN"
 "http://www.w3.org/TR/2001/REC-SVG-20010904/DTD/svg10.dtd">
<svg version="1.0" xmlns="http://www.w3.org/2000/svg"
 width="168.000000pt" height="168.000000pt" viewBox="0 0 168.000000 168.000000"
 preserveAspectRatio="xMidYMid meet">
<metadata>
Created by potrace 1.14, written by Peter Selinger 2001-2017
</metadata>
<g transform="translate(0.000000,168.000000) scale(0.100000,-0.100000)"
fill="#000000" stroke="none">
<path d="M0 835 l0 -825 840 0 840 0 0 825 0 825 -840 0 -840 0 0 -825z m1630
0 l0 -775 -790 0 -790 0 0 775 0 775 790 0 790 0 0 -775z"/>
<path d="M693 1112 c-102 -3 -103 -3 -103 -27 0 -17 6 -25 18 -26 9 -1 22 -2
27 -4 6 -1 15 -3 22 -3 9 -2 12 -47 12 -174 0 -245 -6 -267 -76 -273 -67 -7
-98 13 -106 65 -5 28 -18 40 -47 40 -34 0 -40 -14 -26 -59 17 -57 67 -99 128
-108 29 -4 58 -6 63 -4 6 2 19 5 30 7 30 6 68 37 89 74 18 30 20 54 21 229 l0
196 33 10 c24 7 32 15 32 31 0 13 -3 24 -7 26 -5 2 -54 2 -110 0z"/>
<path d="M1059 1110 c0 -3 -2 -15 -5 -27 -2 -14 1 -23 9 -24 6 -1 17 -2 22 -4
6 -1 18 -3 27 -3 16 -2 17 -19 15 -201 -2 -180 -4 -201 -21 -220 -53 -58 -148
-31 -162 46 -6 32 -9 34 -43 31 -32 -3 -36 -6 -33 -28 4 -30 43 -112 50 -105
3 3 13 -2 22 -10 10 -9 30 -17 46 -19 16 -2 34 -5 39 -7 50 -15 165 49 165 92
0 10 3 19 8 19 4 0 7 90 7 200 0 154 3 200 12 202 7 0 19 1 26 2 16 1 27 17
27 38 0 14 -14 17 -105 20 -58 2 -105 1 -106 -2z"/>
</g>
</svg>
